<?xml version="1.0" standalone="no"?>
<!DOCTYPE svg PUBLIC "-//W3C//DTD SVG 20010904//EN"
 "http://www.w3.org/TR/2001/REC-SVG-20010904/DTD/svg10.dtd">
<svg version="1.0" xmlns="http://www.w3.org/2000/svg"
 width="500.000000pt" height="500.000000pt" viewBox="0 0 500.000000 500.000000"
 preserveAspectRatio="xMidYMid meet">
<metadata>
Created by potrace 1.14, written by Peter Selinger 2001-2017
</metadata>
<g transform="translate(0.000000,500.000000) scale(0.100000,-0.100000)"
fill="#000000" stroke="none">
<path d="M3460 4165 c-63 -19 -181 -59 -261 -89 -80 -30 -251 -89 -380 -131
-418 -137 -730 -242 -904 -303 -93 -33 -276 -92 -405 -132 -129 -40 -318 -103
-420 -140 -102 -38 -197 -72 -212 -75 -27 -7 -28 -9 -24 -59 3 -28 25 -121 49
-206 25 -85 43 -159 40 -164 -7 -11 -13 -246 -6 -268 2 -10 11 -18 18 -18 11
0 13 -27 12 -138 l-1 -139 -418 -254 c-229 -139 -424 -259 -433 -265 -15 -11
-15 -18 -5 -50 26 -76 9 -146 -47 -198 l-27 -25 144 -238 c79 -131 148 -241
154 -245 6 -4 15 -3 21 1 40 32 164 13 166 -26 1 -26 5 -50 19 -123 7 -36 13
-72 14 -80 1 -8 6 -36 10 -62 8 -46 10 -48 41 -48 71 0 157 -61 170 -121 8
-37 12 -39 65 -29 25 5 65 11 90 15 25 3 52 8 60 10 8 2 31 6 50 9 19 3 45 8
56 10 12 2 39 7 60 10 22 4 46 8 54 11 8 2 33 6 55 10 45 6 197 32 235 40 14
3 52 10 85 15 58 10 83 14 135 25 14 3 43 7 65 10 22 3 74 12 115 20 94 19
597 32 970 25 96 -2 299 -2 450 -2 151 1 287 0 302 -2 16 -2 45 -7 65 -10 21
-3 58 -8 83 -11 25 -4 56 -8 70 -10 67 -11 272 -36 330 -41 63 -5 70 -3 220
59 292 122 312 131 320 152 4 11 10 52 14 90 3 39 10 97 15 130 6 33 13 80 16
105 3 25 8 56 10 70 4 25 13 99 19 155 5 44 17 136 21 165 2 14 6 45 10 70 11
78 14 94 20 150 4 30 11 77 16 103 5 26 8 51 7 55 -1 4 1 25 5 47 4 22 9 54
11 70 7 50 16 117 26 175 11 68 17 111 25 175 3 28 8 61 10 75 3 14 7 39 9 55
3 17 10 65 17 107 10 66 9 81 -3 100 -14 22 -14 25 8 41 34 26 32 67 -6 100
-16 15 -30 31 -30 35 0 15 -44 29 -65 22 -33 -12 -57 7 -50 40 8 37 -9 69 -45
82 -16 5 -32 18 -35 27 -7 23 -52 43 -77 35 -14 -4 -18 -2 -14 5 4 6 -6 25
-23 42 -17 17 -34 41 -37 54 -6 25 -51 49 -81 43 -10 -2 -26 6 -36 19 -10 13
-25 23 -34 23 -8 0 -26 9 -40 20 -31 24 -51 25 -80 5 -29 -20 -63 -5 -83 38
-16 32 -57 51 -81 37 -8 -5 -20 1 -32 17 -17 21 -26 24 -55 20 -22 -4 -42 -1
-57 9 -12 8 -31 13 -43 11 -25 -4 -59 -33 -67 -57 -5 -14 -12 -16 -38 -10 -18
4 -43 12 -55 19 -36 19 -80 4 -105 -35 -15 -23 -27 -32 -37 -28 -41 18 -68 16
-84 -7 -9 -13 -16 -20 -16 -17 0 17 -62 -17 -70 -37 -9 -24 -3 -62 13 -82 5
-7 8 -13 6 -14 -29 -6 -70 -2 -92 9 -58 29 -157 -35 -157 -102 0 -19 -5 -21
-38 -18 -31 3 -43 -1 -63 -22 -14 -15 -35 -26 -50 -26 -15 0 -37 -8 -50 -19
-34 -26 -50 -29 -174 -36 -60 -3 -132 -7 -160 -10 -27 -2 -108 -6 -180 -10
-71 -3 -159 -8 -195 -10 -36 -2 -150 -6 -255 -10 -201 -6 -326 -12 -440 -20
-38 -3 -117 -7 -175 -10 -58 -3 -124 -8 -147 -11 l-43 -6 0 34 0 33 233 89
c127 48 363 132 522 186 160 54 351 120 425 148 74 28 207 71 295 97 88 25
239 75 335 110 96 35 273 96 392 135 120 39 220 75 223 80 4 6 -125 333 -136
344 -2 2 -56 -11 -119 -29z"/>
</g>
</svg>
